<svg id="Layer_1" data-name="Layer 1" xmlns="http://www.w3.org/2000/svg" viewBox="0 0 459.12 128"><defs><style>.cls-1{font-size:71.7px;font-family:Montserrat-ExtraBold, Montserrat;font-weight:800;}.cls-2{letter-spacing:-0.01em;}.cls-3{letter-spacing:-0.01em;}.cls-4{letter-spacing:0.01em;}.cls-5{font-size:48.01px;font-family:Montserrat-Medium, Montserrat;font-weight:500;}.cls-6{letter-spacing:-0.02em;}.cls-7{letter-spacing:0em;}.cls-8{letter-spacing:-0.01em;}.cls-9{letter-spacing:0em;}.cls-10{letter-spacing:0em;}.cls-11{letter-spacing:-0.03em;}.cls-12{letter-spacing:-0.01em;}.cls-13{fill:#e6067a;}.cls-14{fill:#fff;}</style></defs><text class="cls-1" transform="translate(122.04 60.94)"><tspan class="cls-2">P</tspan><tspan x="52.05" y="0">ol</tspan><tspan class="cls-3" x="122.24" y="0">k</tspan><tspan class="cls-4" x="170.71" y="0">a</tspan><tspan x="216.3" y="0">cal</tspan></text><text class="cls-5" transform="translate(124.58 115.37)"><tspan class="cls-6">C</tspan><tspan class="cls-7" x="33.9" y="0">A</tspan><tspan class="cls-8" x="69.04" y="0">L</tspan><tspan class="cls-9" x="96.94" y="0">C</tspan><tspan x="131.5" y="0">U</tspan><tspan class="cls-10" x="169.48" y="0">L</tspan><tspan class="cls-11" x="198.14" y="0">A</tspan><tspan class="cls-12" x="231.61" y="0">T</tspan><tspan class="cls-7" x="259.31" y="0">OR</tspan></text><path class="cls-13" d="M554,368.42a6.73,6.73,0,0,1-6.72,6.72h-34.7a6.72,6.72,0,0,1-6.72-6.72V333.73a6.72,6.72,0,0,1,6.72-6.73h34.7a6.73,6.73,0,0,1,6.72,6.73v34.69Z" transform="translate(-446.19 -319.39)"/><path class="cls-13" d="M6.73,7.61H41.42a6.72,6.72,0,0,1,6.72,6.72V49a6.72,6.72,0,0,1-6.72,6.72H6.72A6.72,6.72,0,0,1,0,49V14.34A6.73,6.73,0,0,1,6.73,7.61Z"/><path class="cls-13" d="M494.34,428.09a6.74,6.74,0,0,1-6.73,6.72H452.92a6.74,6.74,0,0,1-6.73-6.72v-34.7a6.73,6.73,0,0,1,6.72-6.72h34.7a6.73,6.73,0,0,1,6.73,6.72v34.7Z" transform="translate(-446.19 -319.39)"/><path class="cls-13" d="M554,428.09a6.73,6.73,0,0,1-6.72,6.72h-34.7a6.73,6.73,0,0,1-6.72-6.72v-34.7a6.72,6.72,0,0,1,6.72-6.72h34.7a6.73,6.73,0,0,1,6.72,6.72v34.7Z" transform="translate(-446.19 -319.39)"/><path class="cls-14" d="M530,416.27a4,4,0,0,0-4,4.11,4,4,0,1,0,8,0A3.89,3.89,0,0,0,530,416.27Z" transform="translate(-446.19 -319.39)"/><path class="cls-14" d="M529.93,405.2a4.1,4.1,0,0,0,0-8.19,4,4,0,0,0-4,4.12A3.94,3.94,0,0,0,529.93,405.2Z" transform="translate(-446.19 -319.39)"/><path class="cls-14" d="M540.92,407.73h-22a1.72,1.72,0,0,0-1.72,1.73V412a1.72,1.72,0,0,0,1.72,1.73h22a1.73,1.73,0,0,0,1.73-1.73v-2.55A1.73,1.73,0,0,0,540.92,407.73Z" transform="translate(-446.19 -319.39)"/><path class="cls-14" d="M540.92,348H533v-8.28a1.72,1.72,0,0,0-1.73-1.73h-2.73a1.73,1.73,0,0,0-1.73,1.73V348h-7.9a1.72,1.72,0,0,0-1.72,1.73v2.56a1.73,1.73,0,0,0,1.72,1.73h7.9v8.37a1.73,1.73,0,0,0,1.73,1.72h2.73a1.72,1.72,0,0,0,1.73-1.72V354h7.9a1.74,1.74,0,0,0,1.73-1.73v-2.56A1.73,1.73,0,0,0,540.92,348Z" transform="translate(-446.19 -319.39)"/><path class="cls-14" d="M482.47,400.18l-1.87-1.87a1.7,1.7,0,0,0-2.45,0l-7.88,8.06-7.89-8.06a1.71,1.71,0,0,0-1.22-.53,1.68,1.68,0,0,0-1.23.51l-1.88,1.87a1.72,1.72,0,0,0,0,2.43l7.93,8.13L458,418.86a1.72,1.72,0,0,0,0,2.43l1.88,1.88a1.72,1.72,0,0,0,1.21.5h0a1.7,1.7,0,0,0,1.22-.52l7.89-8.07,7.88,8.07a1.7,1.7,0,0,0,1.22.52h0a1.72,1.72,0,0,0,1.22-.5l1.88-1.88a1.73,1.73,0,0,0,0-2.43l-8-8.12,8-8.12a1.73,1.73,0,0,0,0-2.44Z" transform="translate(-446.19 -319.39)"/><path class="cls-14" d="M459.27,354.08h22a1.73,1.73,0,0,0,1.72-1.73v-2.56a1.73,1.73,0,0,0-1.72-1.73h-22a1.74,1.74,0,0,0-1.73,1.73v2.56A1.74,1.74,0,0,0,459.27,354.08Z" transform="translate(-446.19 -319.39)"/></svg>