<svg id="Layer_1" data-name="Layer 1" xmlns="http://www.w3.org/2000/svg" viewBox="0 0 456.96 108.14"><defs><style>.cls-1{fill:#e6067a;}.cls-2{fill:#fff;}</style></defs><path d="M608,332.4a17.47,17.47,0,0,1,7.74,6.45,17.67,17.67,0,0,1,2.73,9.86,17.49,17.49,0,0,1-2.73,9.82A17.67,17.67,0,0,1,608,365a28.73,28.73,0,0,1-11.83,2.26h-8.75v13.12H573.25V330.14h22.94A28.57,28.57,0,0,1,608,332.4Zm-6.1,21.72a6.71,6.71,0,0,0,2.23-5.41,6.82,6.82,0,0,0-2.23-5.45q-2.22-1.93-6.59-1.94h-7.89V356h7.89Q599.69,356,601.92,354.12Z" transform="translate(-446.19 -327)"/><path d="M632.9,378.39a19.9,19.9,0,0,1-7.85-27.89,19.17,19.17,0,0,1,7.81-7.13,26.36,26.36,0,0,1,22.62,0,19.06,19.06,0,0,1,7.82,7.09,20.7,20.7,0,0,1,0,20.76,19.24,19.24,0,0,1-7.82,7.17,26,26,0,0,1-22.58,0ZM650,367.67a9.68,9.68,0,0,0,2.3-6.85,9.42,9.42,0,0,0-2.3-6.73,8.3,8.3,0,0,0-11.76,0,9.42,9.42,0,0,0-2.29,6.73,9.68,9.68,0,0,0,2.29,6.85,8.21,8.21,0,0,0,11.76,0Z" transform="translate(-446.19 -327)"/><path d="M672.4,327.13H686v53.2H672.4Z" transform="translate(-446.19 -327)"/><path d="M712.48,366.7l-4,4.09v9.54H694.84v-53.2h13.62V355l13.91-13.55H738.5L722.37,358.1l17.5,22.23H723.38Z" transform="translate(-446.19 -327)"/><path d="M774.64,345.23q5.08,4.41,5.09,13.52v21.58H767v-5Q764.1,381,755.57,381a18,18,0,0,1-7.82-1.58,11.54,11.54,0,0,1-5-4.26,11.34,11.34,0,0,1-1.69-6.13,10,10,0,0,1,4.23-8.57q4.23-3,13.05-3.05h7.75q-.36-6.17-8.25-6.16a19.13,19.13,0,0,0-5.66.89,15.25,15.25,0,0,0-4.88,2.48l-4.59-9.25a25.32,25.32,0,0,1,7.85-3.34,37.8,37.8,0,0,1,9.29-1.18Q769.55,340.82,774.64,345.23Zm-11.11,26a6.42,6.42,0,0,0,2.58-3.37v-3.37h-5.88c-4,0-6,1.32-6,3.94a3.46,3.46,0,0,0,1.36,2.87,5.85,5.85,0,0,0,3.73,1.08A7.54,7.54,0,0,0,763.53,371.22Z" transform="translate(-446.19 -327)"/><path d="M797.22,378.39a19.48,19.48,0,0,1,0-35,25.4,25.4,0,0,1,11.54-2.55,22.11,22.11,0,0,1,11.4,2.83A15.73,15.73,0,0,1,827,351.5l-10.54,5.38c-1.76-3.49-4.35-5.23-7.74-5.23a8.13,8.13,0,0,0-6.06,2.44,9.17,9.17,0,0,0-2.4,6.73,9.42,9.42,0,0,0,2.4,6.85,8.09,8.09,0,0,0,6.06,2.48c3.39,0,6-1.75,7.74-5.24L827,370.29a15.73,15.73,0,0,1-6.81,7.85,22,22,0,0,1-11.4,2.83A25.16,25.16,0,0,1,797.22,378.39Z" transform="translate(-446.19 -327)"/><path d="M863.47,345.23q5.09,4.41,5.09,13.52v21.58H855.87v-5Q852.93,381,844.4,381a18,18,0,0,1-7.82-1.58,11.54,11.54,0,0,1-5-4.26,11.25,11.25,0,0,1-1.69-6.13,10,10,0,0,1,4.23-8.57q4.23-3,13.05-3.05h7.75q-.36-6.17-8.25-6.16a19.13,19.13,0,0,0-5.66.89,15.14,15.14,0,0,0-4.88,2.48l-4.59-9.25a25.32,25.32,0,0,1,7.85-3.34,37.8,37.8,0,0,1,9.29-1.18Q858.38,340.82,863.47,345.23Zm-11.12,26a6.39,6.39,0,0,0,2.59-3.37v-3.37h-5.88c-4,0-5.95,1.32-5.95,3.94a3.46,3.46,0,0,0,1.36,2.87,5.85,5.85,0,0,0,3.73,1.08A7.48,7.48,0,0,0,852.35,371.22Z" transform="translate(-446.19 -327)"/><path d="M877.16,327.13h13.62v53.2H877.16Z" transform="translate(-446.19 -327)"/><path d="M581.74,432.91a16.49,16.49,0,0,1-6.36-6.15,18,18,0,0,1,0-17.62,16.38,16.38,0,0,1,6.38-6.14,18.71,18.71,0,0,1,9.13-2.24,19.26,19.26,0,0,1,7.2,1.32,14.93,14.93,0,0,1,5.57,3.92l-3.12,3a12.56,12.56,0,0,0-9.46-4,13.71,13.71,0,0,0-6.77,1.68,12.17,12.17,0,0,0-4.73,4.63,13.66,13.66,0,0,0,0,13.2,12.19,12.19,0,0,0,4.73,4.64,13.71,13.71,0,0,0,6.77,1.68,12.56,12.56,0,0,0,9.46-4l3.12,3a15,15,0,0,1-5.6,3.94,19,19,0,0,1-7.22,1.34A18.53,18.53,0,0,1,581.74,432.91Z" transform="translate(-446.19 -327)"/><path d="M631.12,426.35H613.26l-3.7,8.41h-4.94l15.22-33.61h4.75l15.27,33.61h-5Zm-1.68-3.84-7.25-16.46-7.25,16.46Z" transform="translate(-446.19 -327)"/><path d="M644.85,401.15h4.8v29.43h18.2v4.18h-23Z" transform="translate(-446.19 -327)"/><path d="M678.68,432.91a16.45,16.45,0,0,1-6.37-6.15,18,18,0,0,1,0-17.62A16.41,16.41,0,0,1,678.7,403a18.67,18.67,0,0,1,9.12-2.24,19.19,19.19,0,0,1,7.2,1.32,14.77,14.77,0,0,1,5.57,3.92l-3.12,3a12.54,12.54,0,0,0-9.46-4,13.73,13.73,0,0,0-6.77,1.68,12.14,12.14,0,0,0-4.72,4.63,13.59,13.59,0,0,0,0,13.2,12.17,12.17,0,0,0,4.72,4.64,13.73,13.73,0,0,0,6.77,1.68,12.54,12.54,0,0,0,9.46-4l3.12,3A14.92,14.92,0,0,1,695,433.8a19,19,0,0,1-7.23,1.34A18.49,18.49,0,0,1,678.68,432.91Z" transform="translate(-446.19 -327)"/><path d="M710.77,431.3q-3.74-3.84-3.74-11V401.15h4.8v18.92q0,10.8,9.46,10.8,4.61,0,7.05-2.67c1.64-1.77,2.45-4.49,2.45-8.13V401.15h4.66v19.11q0,7.25-3.74,11.06t-10.47,3.82Q714.52,435.14,710.77,431.3Z" transform="translate(-446.19 -327)"/><path d="M745.29,401.15h4.8v29.43h18.2v4.18h-23Z" transform="translate(-446.19 -327)"/><path d="M795.37,426.35H777.51l-3.7,8.41h-4.95l15.22-33.61h4.76l15.26,33.61h-5Zm-1.68-3.84-7.25-16.46-7.25,16.46Z" transform="translate(-446.19 -327)"/><path d="M814.09,405.33H802.57v-4.18h27.8v4.18H818.84v29.43h-4.75Z" transform="translate(-446.19 -327)"/><path d="M841.12,432.91a16.54,16.54,0,0,1-6.41-6.17,17.73,17.73,0,0,1,0-17.57,16.47,16.47,0,0,1,6.41-6.17,19.79,19.79,0,0,1,18.29,0,16.41,16.41,0,0,1,6.39,6.14,18,18,0,0,1,0,17.62,16.44,16.44,0,0,1-6.39,6.15,19.87,19.87,0,0,1-18.29,0Zm15.82-3.72a12.36,12.36,0,0,0,4.66-4.64,13.66,13.66,0,0,0,0-13.2,12.33,12.33,0,0,0-4.66-4.63,13.2,13.2,0,0,0-6.65-1.68,13.49,13.49,0,0,0-6.7,1.68,12.23,12.23,0,0,0-4.7,4.63,13.59,13.59,0,0,0,0,13.2,12.25,12.25,0,0,0,4.7,4.64,13.49,13.49,0,0,0,6.7,1.68A13.2,13.2,0,0,0,856.94,429.19Z" transform="translate(-446.19 -327)"/><path d="M897.92,434.76l-7.25-10.33c-.9.07-1.6.1-2.11.1h-8.31v10.23h-4.8V401.15h13.11q6.53,0,10.27,3.12a10.57,10.57,0,0,1,3.75,8.59,11.23,11.23,0,0,1-1.92,6.63,10.87,10.87,0,0,1-5.48,4l8,11.29Zm-2.54-16.28a7.74,7.74,0,0,0,0-11.21c-1.61-1.3-3.93-1.94-7-1.94h-8.16v15.12h8.16Q893,420.45,895.38,418.48Z" transform="translate(-446.19 -327)"/><path class="cls-1" d="M554,368.42a6.73,6.73,0,0,1-6.72,6.72h-34.7a6.72,6.72,0,0,1-6.72-6.72V333.73a6.72,6.72,0,0,1,6.72-6.73h34.7a6.73,6.73,0,0,1,6.72,6.73v34.69Z" transform="translate(-446.19 -327)"/><path class="cls-1" d="M6.73,0H41.42a6.72,6.72,0,0,1,6.72,6.72v34.7a6.72,6.72,0,0,1-6.72,6.72H6.72A6.72,6.72,0,0,1,0,41.42V6.73A6.73,6.73,0,0,1,6.73,0Z"/><path class="cls-1" d="M494.34,428.09a6.74,6.74,0,0,1-6.73,6.72H452.92a6.74,6.74,0,0,1-6.73-6.72v-34.7a6.73,6.73,0,0,1,6.72-6.72h34.7a6.73,6.73,0,0,1,6.73,6.72v34.7Z" transform="translate(-446.19 -327)"/><path class="cls-1" d="M554,428.09a6.73,6.73,0,0,1-6.72,6.72h-34.7a6.73,6.73,0,0,1-6.72-6.72v-34.7a6.72,6.72,0,0,1,6.72-6.72h34.7a6.73,6.73,0,0,1,6.72,6.72v34.7Z" transform="translate(-446.19 -327)"/><path class="cls-2" d="M530,416.27a4,4,0,0,0-4,4.11,4,4,0,1,0,8,0A3.89,3.89,0,0,0,530,416.27Z" transform="translate(-446.19 -327)"/><path class="cls-2" d="M529.93,405.2a4.1,4.1,0,0,0,0-8.19,4,4,0,0,0-4,4.12A3.94,3.94,0,0,0,529.93,405.2Z" transform="translate(-446.19 -327)"/><path class="cls-2" d="M540.92,407.73h-22a1.72,1.72,0,0,0-1.72,1.73V412a1.72,1.72,0,0,0,1.72,1.73h22a1.73,1.73,0,0,0,1.73-1.73v-2.55A1.73,1.73,0,0,0,540.92,407.73Z" transform="translate(-446.19 -327)"/><path class="cls-2" d="M540.92,348H533v-8.28a1.72,1.72,0,0,0-1.73-1.73h-2.73a1.73,1.73,0,0,0-1.73,1.73V348h-7.9a1.72,1.72,0,0,0-1.72,1.73v2.56a1.73,1.73,0,0,0,1.72,1.73h7.9v8.37a1.73,1.73,0,0,0,1.73,1.72h2.73a1.72,1.72,0,0,0,1.73-1.72V354h7.9a1.74,1.74,0,0,0,1.73-1.73v-2.56A1.73,1.73,0,0,0,540.92,348Z" transform="translate(-446.19 -327)"/><path class="cls-2" d="M482.47,400.18l-1.87-1.87a1.7,1.7,0,0,0-2.45,0l-7.88,8.06-7.89-8.06a1.71,1.71,0,0,0-1.22-.53,1.68,1.68,0,0,0-1.23.51l-1.88,1.87a1.72,1.72,0,0,0,0,2.43l7.93,8.13L458,418.86a1.72,1.72,0,0,0,0,2.43l1.88,1.88a1.72,1.72,0,0,0,1.21.5h0a1.7,1.7,0,0,0,1.22-.52l7.89-8.07,7.88,8.07a1.7,1.7,0,0,0,1.22.52h0a1.72,1.72,0,0,0,1.22-.5l1.88-1.88a1.73,1.73,0,0,0,0-2.43l-8-8.12,8-8.12a1.73,1.73,0,0,0,0-2.44Z" transform="translate(-446.19 -327)"/><path class="cls-2" d="M459.27,354.08h22a1.73,1.73,0,0,0,1.72-1.73v-2.56a1.73,1.73,0,0,0-1.72-1.73h-22a1.74,1.74,0,0,0-1.73,1.73v2.56A1.74,1.74,0,0,0,459.27,354.08Z" transform="translate(-446.19 -327)"/></svg>